<svg width="111" height="18" viewBox="0 0 111 18" fill="none" xmlns="http://www.w3.org/2000/svg">
<path d="M0.392 5.092V17.5H3.8V10.3C3.8 9.692 3.888 9.204 4.064 8.836C4.24 8.452 4.448 8.164 4.688 7.972C4.944 7.764 5.2 7.628 5.456 7.564C5.728 7.484 5.944 7.444 6.104 7.444C6.648 7.444 7.056 7.54 7.328 7.732C7.616 7.908 7.816 8.148 7.928 8.452C8.056 8.756 8.128 9.092 8.144 9.46C8.16 9.812 8.168 10.172 8.168 10.54V17.5H11.576V10.588C11.576 10.204 11.6 9.828 11.648 9.46C11.712 9.076 11.824 8.74 11.984 8.452C12.16 8.148 12.392 7.908 12.68 7.732C12.984 7.54 13.376 7.444 13.856 7.444C14.336 7.444 14.712 7.524 14.984 7.684C15.272 7.844 15.488 8.06 15.632 8.332C15.776 8.604 15.864 8.924 15.896 9.292C15.928 9.66 15.944 10.052 15.944 10.468V17.5H19.352V9.196C19.352 8.396 19.24 7.716 19.016 7.156C18.792 6.58 18.48 6.116 18.08 5.764C17.68 5.412 17.2 5.156 16.64 4.996C16.08 4.836 15.472 4.756 14.816 4.756C13.952 4.756 13.2 4.964 12.56 5.38C11.936 5.796 11.44 6.276 11.072 6.82C10.736 6.052 10.24 5.516 9.584 5.212C8.944 4.908 8.232 4.756 7.448 4.756C6.632 4.756 5.904 4.932 5.264 5.284C4.64 5.636 4.104 6.132 3.656 6.772H3.608V5.092H0.392ZM25.07 11.308C25.07 10.812 25.118 10.324 25.214 9.844C25.31 9.364 25.47 8.94 25.694 8.572C25.934 8.204 26.246 7.908 26.63 7.684C27.014 7.444 27.494 7.324 28.07 7.324C28.646 7.324 29.126 7.444 29.51 7.684C29.91 7.908 30.222 8.204 30.446 8.572C30.686 8.94 30.854 9.364 30.95 9.844C31.046 10.324 31.094 10.812 31.094 11.308C31.094 11.804 31.046 12.292 30.95 12.772C30.854 13.236 30.686 13.66 30.446 14.044C30.222 14.412 29.91 14.708 29.51 14.932C29.126 15.156 28.646 15.268 28.07 15.268C27.494 15.268 27.014 15.156 26.63 14.932C26.246 14.708 25.934 14.412 25.694 14.044C25.47 13.66 25.31 13.236 25.214 12.772C25.118 12.292 25.07 11.804 25.07 11.308ZM21.662 11.308C21.662 12.3 21.814 13.196 22.118 13.996C22.422 14.796 22.854 15.484 23.414 16.06C23.974 16.62 24.646 17.052 25.43 17.356C26.214 17.66 27.094 17.812 28.07 17.812C29.046 17.812 29.926 17.66 30.71 17.356C31.51 17.052 32.19 16.62 32.75 16.06C33.31 15.484 33.742 14.796 34.046 13.996C34.35 13.196 34.502 12.3 34.502 11.308C34.502 10.316 34.35 9.42 34.046 8.62C33.742 7.804 33.31 7.116 32.75 6.556C32.19 5.98 31.51 5.54 30.71 5.236C29.926 4.916 29.046 4.756 28.07 4.756C27.094 4.756 26.214 4.916 25.43 5.236C24.646 5.54 23.974 5.98 23.414 6.556C22.854 7.116 22.422 7.804 22.118 8.62C21.814 9.42 21.662 10.316 21.662 11.308ZM43.5819 17.5L47.7819 5.092H44.3979L41.7819 13.564H41.7339L39.1179 5.092H35.5419L39.7899 17.5H43.5819ZM52.6906 3.172V0.363999H49.2826V3.172H52.6906ZM49.2826 5.092V17.5H52.6906V5.092H49.2826ZM63.7261 9.964H58.1821C58.1981 9.724 58.2461 9.452 58.3261 9.148C58.4221 8.844 58.5741 8.556 58.7821 8.284C59.0061 8.012 59.2941 7.788 59.6461 7.612C60.0141 7.42 60.4701 7.324 61.0141 7.324C61.8461 7.324 62.4621 7.548 62.8621 7.996C63.2781 8.444 63.5661 9.1 63.7261 9.964ZM58.1821 12.124H67.1341C67.1981 11.164 67.1181 10.244 66.8941 9.364C66.6701 8.484 66.3021 7.7 65.7901 7.012C65.2941 6.324 64.6541 5.78 63.8701 5.38C63.0861 4.964 62.1661 4.756 61.1101 4.756C60.1661 4.756 59.3021 4.924 58.5181 5.26C57.7501 5.596 57.0861 6.06 56.5261 6.652C55.9661 7.228 55.5341 7.916 55.2301 8.716C54.9261 9.516 54.7741 10.38 54.7741 11.308C54.7741 12.268 54.9181 13.148 55.2061 13.948C55.5101 14.748 55.9341 15.436 56.4781 16.012C57.0221 16.588 57.6861 17.036 58.4701 17.356C59.2541 17.66 60.1341 17.812 61.1101 17.812C62.5181 17.812 63.7181 17.492 64.7101 16.852C65.7021 16.212 66.4381 15.148 66.9181 13.66H63.9181C63.8061 14.044 63.5021 14.412 63.0061 14.764C62.5101 15.1 61.9181 15.268 61.2301 15.268C60.2701 15.268 59.5341 15.02 59.0221 14.524C58.5101 14.028 58.2301 13.228 58.1821 12.124ZM78.2514 11.308C78.2514 11.82 78.1954 12.316 78.0834 12.796C77.9714 13.276 77.7954 13.7 77.5554 14.068C77.3154 14.436 77.0114 14.732 76.6434 14.956C76.2914 15.164 75.8594 15.268 75.3474 15.268C74.8514 15.268 74.4194 15.164 74.0514 14.956C73.6834 14.732 73.3794 14.436 73.1394 14.068C72.8994 13.7 72.7234 13.276 72.6114 12.796C72.4994 12.316 72.4434 11.82 72.4434 11.308C72.4434 10.78 72.4994 10.276 72.6114 9.796C72.7234 9.316 72.8994 8.892 73.1394 8.524C73.3794 8.156 73.6834 7.868 74.0514 7.66C74.4194 7.436 74.8514 7.324 75.3474 7.324C75.8594 7.324 76.2914 7.436 76.6434 7.66C77.0114 7.868 77.3154 8.156 77.5554 8.524C77.7954 8.892 77.9714 9.316 78.0834 9.796C78.1954 10.276 78.2514 10.78 78.2514 11.308ZM69.1554 0.363999V17.5H72.3954V15.916H72.4434C72.8114 16.604 73.3554 17.092 74.0754 17.38C74.7954 17.668 75.6114 17.812 76.5234 17.812C77.1474 17.812 77.7634 17.684 78.3714 17.428C78.9794 17.172 79.5234 16.78 80.0034 16.252C80.4994 15.724 80.8994 15.052 81.2034 14.236C81.5074 13.404 81.6594 12.42 81.6594 11.284C81.6594 10.148 81.5074 9.172 81.2034 8.356C80.8994 7.524 80.4994 6.844 80.0034 6.316C79.5234 5.788 78.9794 5.396 78.3714 5.14C77.7634 4.884 77.1474 4.756 76.5234 4.756C75.7554 4.756 75.0114 4.908 74.2914 5.212C73.5874 5.5 73.0274 5.964 72.6114 6.604H72.5634V0.363999H69.1554ZM86.8513 11.308C86.8513 10.812 86.8993 10.324 86.9953 9.844C87.0913 9.364 87.2513 8.94 87.4753 8.572C87.7153 8.204 88.0273 7.908 88.4113 7.684C88.7953 7.444 89.2753 7.324 89.8513 7.324C90.4273 7.324 90.9073 7.444 91.2913 7.684C91.6913 7.908 92.0033 8.204 92.2273 8.572C92.4673 8.94 92.6353 9.364 92.7313 9.844C92.8273 10.324 92.8753 10.812 92.8753 11.308C92.8753 11.804 92.8273 12.292 92.7313 12.772C92.6353 13.236 92.4673 13.66 92.2273 14.044C92.0033 14.412 91.6913 14.708 91.2913 14.932C90.9073 15.156 90.4273 15.268 89.8513 15.268C89.2753 15.268 88.7953 15.156 88.4113 14.932C88.0273 14.708 87.7153 14.412 87.4753 14.044C87.2513 13.66 87.0913 13.236 86.9953 12.772C86.8993 12.292 86.8513 11.804 86.8513 11.308ZM83.4433 11.308C83.4433 12.3 83.5953 13.196 83.8993 13.996C84.2033 14.796 84.6353 15.484 85.1953 16.06C85.7553 16.62 86.4273 17.052 87.2113 17.356C87.9953 17.66 88.8753 17.812 89.8513 17.812C90.8273 17.812 91.7073 17.66 92.4913 17.356C93.2913 17.052 93.9713 16.62 94.5312 16.06C95.0913 15.484 95.5233 14.796 95.8273 13.996C96.1313 13.196 96.2833 12.3 96.2833 11.308C96.2833 10.316 96.1313 9.42 95.8273 8.62C95.5233 7.804 95.0913 7.116 94.5312 6.556C93.9713 5.98 93.2913 5.54 92.4913 5.236C91.7073 4.916 90.8273 4.756 89.8513 4.756C88.8753 4.756 87.9953 4.916 87.2113 5.236C86.4273 5.54 85.7553 5.98 85.1953 6.556C84.6353 7.116 84.2033 7.804 83.8993 8.62C83.5953 9.42 83.4433 10.316 83.4433 11.308ZM101.667 10.972L97.2031 17.5H101.019L103.611 13.588L106.203 17.5H110.091L105.507 10.9L109.587 5.092H105.819L103.659 8.332L101.475 5.092H97.5871L101.667 10.972Z" fill="url(#paint0_linear_13_1273)"/>
<defs>
<linearGradient id="paint0_linear_13_1273" x1="96.4744" y1="26.9557" x2="-11.3956" y2="0.453524" gradientUnits="userSpaceOnUse">
<stop stop-color="#35C3F3"/>
<stop offset="0.264988" stop-color="#8B9FE8"/>
<stop offset="0.525409" stop-color="#E681D8"/>
<stop offset="0.744796" stop-color="#FFA9A4"/>
<stop offset="1" stop-color="#FED2CE"/>
<stop offset="1" stop-color="#FED2CE"/>
</linearGradient>
</defs>
</svg>
